<?xml version="1.0" encoding="UTF-8" standalone="no"?>
<svg
   width="395.89642"
   zoomAndPan="magnify"
   viewBox="0 0 296.92232 47.562514"
   height="63.416687"
   preserveAspectRatio="xMidYMid"
   version="1.0"
   id="svg175"
   xmlns="http://www.w3.org/2000/svg"
   xmlns:svg="http://www.w3.org/2000/svg">
  <defs
     id="defs137">
    <clipPath
       id="46719b090d">
      <path
         d="M 37.5,163.30469 H 116 v 47.25 H 37.5 Z m 0,0"
         clip-rule="nonzero"
         id="path134" />
    </clipPath>
  </defs>
  <g
     clip-path="url(#46719b090d)"
     id="g141"
     transform="translate(-37.827411,-162.84961)">
    <path
       fill="#a274ff"
       d="M 50.484375,174.32031 37.9375,207.92187 c -0.417969,1.11329 0.40625,2.30079 1.59375,2.30079 h 10.332031 c 0.722657,0 1.367188,-0.45313 1.609375,-1.13672 L 54.5,200.51562 l 3.734375,-11.1914 c 0.117187,-0.34766 0.117187,-0.72266 0.0039,-1.07031 l -4.535156,-13.86719 c -0.503906,-1.53125 -2.652344,-1.57422 -3.21875,-0.0664 z m 46.34375,-11.01953 h -9.144531 c -1.171875,0 -1.96875,1.15625 -1.558594,2.26172 l 15.82813,43.53516 c 0.25781,0.67578 0.91015,1.125 1.6289,1.125 h 10.61328 c 1.1875,0 1.98438,-1.1875 1.54297,-2.30079 L 98.449219,164.41016 c -0.261719,-0.66797 -0.910157,-1.10938 -1.621094,-1.10938 z m -23.621094,1.10938 17.289063,43.51171 c 0.441406,1.11329 -0.355469,2.30079 -1.546875,2.30079 H 78.339844 c -0.71875,0 -1.371094,-0.44922 -1.628906,-1.125 L 73.421875,200.51562 60.882812,165.5625 c -0.410156,-1.10547 0.386719,-2.26172 1.558594,-2.26172 h 9.144532 c 0.710937,0 1.359374,0.44141 1.621093,1.10938"
       fill-opacity="1"
       fill-rule="nonzero"
       id="path139" />
  </g>
  <g
     fill="#ffffff"
     fill-opacity="1"
     id="g149"
     transform="translate(-37.827411,-162.84961)">
    <g
       transform="translate(120.67661,209.61524)"
       id="g147">
      <g
         id="g145">
        <path
           d="m 27.796875,-46.765625 c 7.925781,0 14.046875,2.027344 18.359375,6.078125 4.320312,4.054688 6.484375,9.953125 6.484375,17.703125 0,7.75 -2.164063,13.652344 -6.484375,17.703125 C 41.84375,-1.226562 35.722656,0.796875 27.796875,0.796875 19.867188,0.796875 13.753906,-1.21875 9.453125,-5.25 5.148438,-9.28125 3,-15.191406 3,-22.984375 3,-30.773438 5.148438,-36.6875 9.453125,-40.71875 c 4.300781,-4.03125 10.414063,-6.046875 18.34375,-6.046875 z m 0,11.015625 c -3.167969,0 -5.574219,0.960938 -7.21875,2.875 -1.648437,1.917969 -2.46875,4.5 -2.46875,7.75 v 4.28125 c 0,3.25 0.820313,5.835938 2.46875,7.75 1.644531,1.917969 4.050781,2.875 7.21875,2.875 3.15625,0 5.566406,-0.957031 7.234375,-2.875 1.675781,-1.914062 2.515625,-4.5 2.515625,-7.75 V -25.125 c 0,-3.25 -0.839844,-5.832031 -2.515625,-7.75 -1.667969,-1.914062 -4.078125,-2.875 -7.234375,-2.875 z m 0,0"
           id="path143" />
      </g>
    </g>
  </g>
  <g
     fill="#ffffff"
     fill-opacity="1"
     id="g157"
     transform="translate(-37.827411,-162.84961)">
    <g
       transform="translate(176.33214,209.61524)"
       id="g155">
      <g
         id="g153">
        <path
           d="m 48.578125,-31.875 c 0,2.8125 -0.761719,5.355469 -2.28125,7.625 -1.511719,2.273438 -3.714844,3.945312 -6.609375,5.015625 L 49.90625,0 H 33.34375 L 25.1875,-16.765625 H 19.703125 V 0 H 4.9375 v -45.96875 h 28.140625 c 3.289063,0 6.101563,0.636719 8.4375,1.90625 2.34375,1.273438 4.101563,2.992188 5.28125,5.15625 1.1875,2.15625 1.78125,4.5 1.78125,7.03125 z m -15.03125,0.609375 c 0,-1.207031 -0.402344,-2.210937 -1.203125,-3.015625 -0.804688,-0.800781 -1.789062,-1.203125 -2.953125,-1.203125 h -9.6875 V -27 h 9.6875 c 1.164063,0 2.148437,-0.410156 2.953125,-1.234375 0.800781,-0.820313 1.203125,-1.832031 1.203125,-3.03125 z m 0,0"
           id="path151" />
      </g>
    </g>
  </g>
  <g
     fill="#ffffff"
     fill-opacity="1"
     id="g165"
     transform="translate(-37.827411,-162.84961)">
    <g
       transform="translate(228.31293,209.61524)"
       id="g163">
      <g
         id="g161">
        <path
           d="m 27.796875,-46.765625 c 7.925781,0 14.046875,2.027344 18.359375,6.078125 4.320312,4.054688 6.484375,9.953125 6.484375,17.703125 0,7.75 -2.164063,13.652344 -6.484375,17.703125 C 41.84375,-1.226562 35.722656,0.796875 27.796875,0.796875 19.867188,0.796875 13.753906,-1.21875 9.453125,-5.25 5.148438,-9.28125 3,-15.191406 3,-22.984375 3,-30.773438 5.148438,-36.6875 9.453125,-40.71875 c 4.300781,-4.03125 10.414063,-6.046875 18.34375,-6.046875 z m 0,11.015625 c -3.167969,0 -5.574219,0.960938 -7.21875,2.875 -1.648437,1.917969 -2.46875,4.5 -2.46875,7.75 v 4.28125 c 0,3.25 0.820313,5.835938 2.46875,7.75 1.644531,1.917969 4.050781,2.875 7.21875,2.875 3.15625,0 5.566406,-0.957031 7.234375,-2.875 1.675781,-1.914062 2.515625,-4.5 2.515625,-7.75 V -25.125 c 0,-3.25 -0.839844,-5.832031 -2.515625,-7.75 -1.667969,-1.914062 -4.078125,-2.875 -7.234375,-2.875 z m 0,0"
           id="path159" />
      </g>
    </g>
  </g>
  <g
     fill="#ffffff"
     fill-opacity="1"
     id="g173"
     transform="translate(-37.827411,-162.84961)">
    <g
       transform="translate(283.96846,209.61524)"
       id="g171">
      <g
         id="g169">
        <path
           d="M 17.4375,0 1.140625,-45.96875 H 16.90625 l 9.21875,30.734375 h 0.265625 l 9.28125,-30.734375 H 50.78125 L 34.546875,0 Z m 0,0"
           id="path167" />
      </g>
    </g>
  </g>
</svg>
